<?xml version="1.0" encoding="UTF-8" standalone="no"?>
<svg
   height="16px"
   viewBox="0 0 16 16"
   width="16px"
   version="1.1"
   id="svg4"
   sodipodi:docname="show-lyrics-symbolic.svg"
   xml:space="preserve"
   inkscape:version="1.3.2 (091e20ef0f, 2023-11-25)"
   xmlns:inkscape="http://www.inkscape.org/namespaces/inkscape"
   xmlns:sodipodi="http://sodipodi.sourceforge.net/DTD/sodipodi-0.dtd"
   xmlns="http://www.w3.org/2000/svg"
   xmlns:svg="http://www.w3.org/2000/svg"><sodipodi:namedview
     id="namedview1"
     pagecolor="#ffffff"
     bordercolor="#111111"
     borderopacity="1"
     inkscape:showpageshadow="0"
     inkscape:pageopacity="0"
     inkscape:pagecheckerboard="1"
     inkscape:deskcolor="#d1d1d1"
     showgrid="true"
     inkscape:zoom="52.3125"
     inkscape:cx="7.9904421"
     inkscape:cy="8"
     inkscape:window-width="2560"
     inkscape:window-height="1000"
     inkscape:window-x="0"
     inkscape:window-y="0"
     inkscape:window-maximized="1"
     inkscape:current-layer="svg4"><inkscape:grid
       id="grid1"
       units="px"
       originx="0"
       originy="0"
       spacingx="1"
       spacingy="1"
       empcolor="#0099e5"
       empopacity="0.30196078"
       color="#0099e5"
       opacity="0.14901961"
       empspacing="5"
       dotted="false"
       gridanglex="30"
       gridanglez="30"
       visible="true" /></sodipodi:namedview><defs
     id="defs8" /><path
     id="rect1"
     style="fill:#241f31;stroke-width:1.29099;stroke-linecap:round;stroke-linejoin:round"
     d="m 2.5,2 h 9 C 11.777,2 12,2.223 12,2.5 12,2.777 11.777,3 11.5,3 h -9 C 2.223,3 2,2.777 2,2.5 2,2.223 2.223,2 2.5,2 Z" /><path
     id="rect1-6"
     style="fill:#241f31;stroke-width:1.1547;stroke-linecap:round;stroke-linejoin:round"
     d="m 2.5,4 h 7 C 9.777,4 10,4.223 10,4.5 10,4.777 9.777,5 9.5,5 h -7 C 2.223,5 2,4.777 2,4.5 2,4.223 2.223,4 2.5,4 Z" /><path
     id="rect1-5"
     style="fill:#241f31;stroke-linecap:round;stroke-linejoin:round"
     d="m 2.5,6 h 5 C 7.777,6 8,6.223 8,6.5 8,6.777 7.777,7 7.5,7 h -5 C 2.223,7 2,6.777 2,6.5 2,6.223 2.223,6 2.5,6 Z" /><path
     id="rect2"
     style="fill:#241f31;stroke:none;stroke-width:0.948683;stroke-linecap:round;stroke-linejoin:round"
     d="M 9.5 7 C 9.2230003 7 9 7.2230003 9 7.5 L 9 12.5 C 9 12.777 9.2230003 13 9.5 13 L 14.5 13 C 14.777 13 15 12.777 15 12.5 L 15 7.5 C 15 7.2230003 14.777 7 14.5 7 L 9.5 7 z M 10.5 8 L 13.5 8 C 13.777 8 14 8.2230003 14 8.5 L 14 11.5 C 14 11.777 13.777 12 13.5 12 L 10.5 12 C 10.223 12 10 11.777 10 11.5 L 10 8.5 C 10 8.2230003 10.223 8 10.5 8 z " /><path
     id="rect3"
     style="fill:#241f31;stroke-width:1.06293;stroke-linecap:round;stroke-linejoin:round"
     d="m 9.5,14 h 5 c 0.277,0 0.5,0.223 0.5,0.5 0,0.277 -0.223,0.5 -0.5,0.5 h -5 C 9.223,15 9,14.777 9,14.5 9,14.223 9.223,14 9.5,14 Z" /></svg>
