<?xml version="1.0" encoding="UTF-8" standalone="no"?>
<svg
   height="16px"
   viewBox="0 0 16 16"
   width="16px"
   version="1.1"
   id="svg4"
   sodipodi:docname="show-lyrics-symbolic.svg"
   xml:space="preserve"
   inkscape:version="1.3.2 (091e20ef0f, 2023-11-25)"
   xmlns:inkscape="http://www.inkscape.org/namespaces/inkscape"
   xmlns:sodipodi="http://sodipodi.sourceforge.net/DTD/sodipodi-0.dtd"
   xmlns="http://www.w3.org/2000/svg"
   xmlns:svg="http://www.w3.org/2000/svg"><sodipodi:namedview
     id="namedview1"
     pagecolor="#ffffff"
     bordercolor="#111111"
     borderopacity="1"
     inkscape:showpageshadow="0"
     inkscape:pageopacity="0"
     inkscape:pagecheckerboard="1"
     inkscape:deskcolor="#d1d1d1"
     showgrid="true"
     inkscape:zoom="52.3125"
     inkscape:cx="7.9904421"
     inkscape:cy="7.7610514"
     inkscape:window-width="2560"
     inkscape:window-height="979"
     inkscape:window-x="0"
     inkscape:window-y="0"
     inkscape:window-maximized="1"
     inkscape:current-layer="svg4"><inkscape:grid
       id="grid1"
       units="px"
       originx="0"
       originy="0"
       spacingx="1"
       spacingy="1"
       empcolor="#0099e5"
       empopacity="0.30196078"
       color="#0099e5"
       opacity="0.14901961"
       empspacing="5"
       dotted="false"
       gridanglex="30"
       gridanglez="30"
       visible="true" /></sodipodi:namedview><defs
     id="defs8" /><path
     style="fill:none;stroke:#000000;stroke-linecap:round;stroke-linejoin:round;stroke-opacity:1"
     d="M 2.5000326,2.5000326 13.5,2.5 c 0,0 1,0 1,1 v 8.000033 c 0,0 0,1 -1,1 h -0.999967 v 3 L 9.5,12.5 l -6.9999674,3.7e-5 c 0,0 -1,0 -1,-1 V 3.5000366 c 0,0 0,-1 1,-1 z"
     id="path1"
     sodipodi:nodetypes="ccscsccccsccc" /><text
     xml:space="preserve"
     style="fill:#241f31;fill-opacity:1;stroke:none;stroke-linecap:round;stroke-linejoin:round;stroke-opacity:1"
     x="4.7793937"
     y="7.3886294"
     id="text4"><tspan
       sodipodi:role="line"
       id="tspan4" /></text><path
     id="text5-2"
     style="font-size:19.2898px;font-family:Lexend;-inkscape-font-specification:Lexend;fill:#111111;stroke-width:1.45299;stroke-linecap:round;stroke-linejoin:round"
     d="M 4.5,5 C 4.2230003,5 4,5.2230003 4,5.5 v 0.5019531 0.7930904 c 0,0.409913 0.4965184,0.409913 0.4965184,0.409913 H 6 C 6,8.6101623 5,9 4,8.9999649 4,10 4.0177092,10 4,10 4.8924425,10 7,10 6.9882812,7.6074219 7,7.5 7,7.5368315 7,7.5 V 6.5 5.7675781 5.5 C 7,5.2230003 6.7769997,5 6.5,5 H 4.9160156 Z"
     sodipodi:nodetypes="sscccccccsccsscs" /><path
     id="text5-2-3"
     style="font-size:19.2898px;font-family:Lexend;-inkscape-font-specification:Lexend;fill:#111111;stroke-width:1.45299;stroke-linecap:round;stroke-linejoin:round"
     d="M 9.5,5 C 9.2230003,5 9,5.2230003 9,5.5 v 0.5019531 0.7930904 c 0,0.409913 0.4965184,0.409913 0.4965184,0.409913 H 11 C 11,8.6101623 10,9 9,8.9999649 9,10 9.0177092,10 9,10 9.8924425,10 12,10 11.988282,7.6074219 12,7.5 12,7.5368315 12,7.5 V 6.5 5.7675781 5.5 C 12,5.2230003 11.777,5 11.5,5 H 9.9160156 Z"
     sodipodi:nodetypes="sscccccccsccsscs" /></svg>
