<svg xmlns="http://www.w3.org/2000/svg" xmlns:svg="http://www.w3.org/2000/svg" id="svg99" width="128" height="128" fill="none" version="1.1" viewBox="0 0 128 128"><g id="g4" filter="url(#filter0_i_812_2)"><path id="path2" fill="#F0F0F2" d="M92 12H36C22.7452 12 12 22.7452 12 36V92C12 105.255 22.7452 116 36 116H92C105.255 116 116 105.255 116 92V36C116 22.7452 105.255 12 92 12Z"/></g><g id="g10" filter="url(#filter1_i_812_2)"><path id="path6" fill="#F7812B" d="M92 12H36C22.7452 12 12 22.7452 12 36V92C12 105.255 22.7452 116 36 116H92C105.255 116 116 105.255 116 92V36C116 22.7452 105.255 12 92 12Z"/><path id="path8" fill="url(#paint0_linear_812_2)" fill-opacity=".5" d="M92 12H36C22.7452 12 12 22.7452 12 36V92C12 105.255 22.7452 116 36 116H92C105.255 116 116 105.255 116 92V36C116 22.7452 105.255 12 92 12Z"/></g><g style="opacity:.9;mix-blend-mode:hard-light;fill:#f0f0f2;fill-opacity:.7;stroke:none;filter:url(#filter2_d_812_2)" id="g16" filter="url(#filter2_d_812_2)" transform="translate(0.53590012,0.20700073)"><g id="g14" filter="url(#filter3_ii_812_2)" style="display:inline;fill:#f0f0f2;fill-opacity:.7;stroke:none"><path id="path12" fill="#f0f0f2" fill-opacity=".7" fill-rule="evenodd" d="m 71.520122,37.509914 c -0.06573,15.088394 -0.03956,30.179898 -0.162788,45.266345 -0.361341,8.809819 -8.929767,16.059317 -17.589412,14.893162 -8.513452,-0.670107 -15.281648,-9.185082 -14.187467,-17.6975 0.665766,-8.672543 9.259457,-15.526332 17.758733,-14.290248 1.73783,-0.614119 5.603826,3.076758 5.128426,0.118832 0.05021,-11.136862 0.0257,-22.276036 0.12274,-33.411448 0.454823,-3.550115 4.404409,-5.289938 7.593332,-4.338862 7.412386,0.731357 15.106959,5.450103 16.786577,13.19948 0.743326,2.894331 1.088061,7.108985 -2.273843,8.456959 -3.060943,1.447207 -6.72275,-1.484765 -6.236374,-4.807797 0.0058,-3.962441 -3.44275,-6.535091 -6.939924,-7.388923 z" clip-rule="evenodd" style="opacity:1;mix-blend-mode:normal;fill:#f0f0f2;fill-opacity:.7;stroke:none;stroke-width:1.00139"/></g></g><defs id="defs97"><filter id="filter0_i_812_2" width="104" height="104" x="12" y="12" color-interpolation-filters="sRGB" filterUnits="userSpaceOnUse"><feFlood id="feFlood18" flood-opacity="0" result="BackgroundImageFix"/><feBlend id="feBlend20" in="SourceGraphic" in2="BackgroundImageFix" mode="normal" result="shape"/><feColorMatrix id="feColorMatrix22" in="SourceAlpha" result="hardAlpha" type="matrix" values="0 0 0 0 0 0 0 0 0 0 0 0 0 0 0 0 0 0 127 0"/><feOffset id="feOffset24" dy="-4"/><feComposite id="feComposite26" in2="hardAlpha" k2="-1" k3="1" operator="arithmetic"/><feColorMatrix id="feColorMatrix28" type="matrix" values="0 0 0 0 0.176471 0 0 0 0 0.176471 0 0 0 0 0.176471 0 0 0 0.1 0"/><feBlend id="feBlend30" in2="shape" mode="normal" result="effect1_innerShadow_812_2"/></filter><filter id="filter1_i_812_2" width="104" height="104" x="12" y="12" color-interpolation-filters="sRGB" filterUnits="userSpaceOnUse"><feFlood id="feFlood33" flood-opacity="0" result="BackgroundImageFix"/><feBlend id="feBlend35" in="SourceGraphic" in2="BackgroundImageFix" mode="normal" result="shape"/><feColorMatrix id="feColorMatrix37" in="SourceAlpha" result="hardAlpha" type="matrix" values="0 0 0 0 0 0 0 0 0 0 0 0 0 0 0 0 0 0 127 0"/><feOffset id="feOffset39" dy="-4"/><feComposite id="feComposite41" in2="hardAlpha" k2="-1" k3="1" operator="arithmetic"/><feColorMatrix id="feColorMatrix43" type="matrix" values="0 0 0 0 0.176471 0 0 0 0 0.176471 0 0 0 0 0.176471 0 0 0 0.1 0"/><feBlend id="feBlend45" in2="shape" mode="normal" result="effect1_innerShadow_812_2"/></filter><filter id="filter2_d_812_2" width="70.058" height="82.675" x="28.464" y="24.793" color-interpolation-filters="sRGB" filterUnits="userSpaceOnUse"><feFlood id="feFlood48" flood-opacity="0" result="BackgroundImageFix"/><feColorMatrix id="feColorMatrix50" in="SourceAlpha" result="hardAlpha" type="matrix" values="0 0 0 0 0 0 0 0 0 0 0 0 0 0 0 0 0 0 127 0"/><feOffset id="feOffset52" dy="4"/><feGaussianBlur id="feGaussianBlur54" stdDeviation="2.618"/><feColorMatrix id="feColorMatrix56" type="matrix" values="0 0 0 0 0.176471 0 0 0 0 0.176471 0 0 0 0 0.176471 0 0 0 0.2 0"/><feBlend id="feBlend58" in2="BackgroundImageFix" mode="normal" result="effect1_dropShadow_812_2"/><feBlend id="feBlend60" in="SourceGraphic" in2="effect1_dropShadow_812_2" mode="normal" result="shape"/></filter><filter id="filter3_ii_812_2" width="54.058" height="74.675" x="36.464" y="24.793" color-interpolation-filters="sRGB" filterUnits="userSpaceOnUse"><feFlood id="feFlood63" flood-opacity="0" result="BackgroundImageFix"/><feBlend id="feBlend65" in="SourceGraphic" in2="BackgroundImageFix" mode="normal" result="shape"/><feColorMatrix id="feColorMatrix67" in="SourceAlpha" result="hardAlpha" type="matrix" values="0 0 0 0 0 0 0 0 0 0 0 0 0 0 0 0 0 0 127 0"/><feOffset id="feOffset69" dy="-4"/><feGaussianBlur id="feGaussianBlur71" stdDeviation="2"/><feComposite id="feComposite73" in2="hardAlpha" k2="-1" k3="1" operator="arithmetic"/><feColorMatrix id="feColorMatrix75" type="matrix" values="0 0 0 0 0.176471 0 0 0 0 0.176471 0 0 0 0 0.176471 0 0 0 0.25 0"/><feBlend id="feBlend77" in2="shape" mode="normal" result="effect1_innerShadow_812_2"/><feColorMatrix id="feColorMatrix79" in="SourceAlpha" result="hardAlpha" type="matrix" values="0 0 0 0 0 0 0 0 0 0 0 0 0 0 0 0 0 0 127 0"/><feOffset id="feOffset81" dy="4"/><feGaussianBlur id="feGaussianBlur83" stdDeviation="2"/><feComposite id="feComposite85" in2="hardAlpha" k2="-1" k3="1" operator="arithmetic"/><feColorMatrix id="feColorMatrix87" type="matrix" values="0 0 0 0 0.941176 0 0 0 0 0.941176 0 0 0 0 0.94902 0 0 0 1 0"/><feBlend id="feBlend89" in2="effect1_innerShadow_812_2" mode="normal" result="effect2_innerShadow_812_2"/></filter><linearGradient id="paint0_linear_812_2" x1="64" x2="64" y1="12" y2="116" gradientUnits="userSpaceOnUse"><stop id="stop92" stop-color="#2D2D2D" stop-opacity="0"/><stop id="stop94" offset="1" stop-color="#2D2D2D" stop-opacity=".2"/></linearGradient></defs></svg>