<svg width="128" height="128" viewBox="0 0 128 128" fill="none" xmlns="http://www.w3.org/2000/svg">
<g filter="url(#filter0_i_812_2)">
<path d="M92 12H36C22.7452 12 12 22.7452 12 36V92C12 105.255 22.7452 116 36 116H92C105.255 116 116 105.255 116 92V36C116 22.7452 105.255 12 92 12Z" fill="#F0F0F2"/>
</g>
<g filter="url(#filter1_i_812_2)">
<path d="M92 12H36C22.7452 12 12 22.7452 12 36V92C12 105.255 22.7452 116 36 116H92C105.255 116 116 105.255 116 92V36C116 22.7452 105.255 12 92 12Z" fill="#F7812B"/>
<path d="M92 12H36C22.7452 12 12 22.7452 12 36V92C12 105.255 22.7452 116 36 116H92C105.255 116 116 105.255 116 92V36C116 22.7452 105.255 12 92 12Z" fill="url(#paint0_linear_812_2)" fill-opacity="0.5"/>
</g>
<g style="mix-blend-mode:hard-light" filter="url(#filter2_d_812_2)">
<g filter="url(#filter3_ii_812_2)">
<path fill-rule="evenodd" clip-rule="evenodd" d="M72 36.5643V80.8753V81.4134C72 81.6177 71.9864 81.8188 71.96 82.0159C71.3755 90.3302 64.4533 96.9979 56 96.9979C47.1634 96.9979 40 89.7119 40 80.8753C40 72.0388 47.1634 64.7528 56 64.7528C58.5103 64.7528 60.8856 65.3408 63 66.3853V31.9691C63 30.5513 63.6557 29.2866 64.6804 28.4618C65.5031 27.5634 66.6858 27 68 27C71.167 27 75.9116 27.7716 80.0267 30.2757C84.3795 32.9244 88 37.5495 88 44.5996C88 47.0849 85.9853 49.0996 83.5 49.0996C81.0147 49.0996 79 47.0849 79 44.5996C79 41.17 77.4538 39.2453 75.3483 37.9641C74.3135 37.3345 73.1495 36.8779 72 36.5643Z" fill="#F0F0F2" fill-opacity="0.7"/>
</g>
</g>
<defs>
<filter id="filter0_i_812_2" x="12" y="12" width="104" height="104" filterUnits="userSpaceOnUse" color-interpolation-filters="sRGB">
<feFlood flood-opacity="0" result="BackgroundImageFix"/>
<feBlend mode="normal" in="SourceGraphic" in2="BackgroundImageFix" result="shape"/>
<feColorMatrix in="SourceAlpha" type="matrix" values="0 0 0 0 0 0 0 0 0 0 0 0 0 0 0 0 0 0 127 0" result="hardAlpha"/>
<feOffset dy="-4"/>
<feComposite in2="hardAlpha" operator="arithmetic" k2="-1" k3="1"/>
<feColorMatrix type="matrix" values="0 0 0 0 0.176471 0 0 0 0 0.176471 0 0 0 0 0.176471 0 0 0 0.1 0"/>
<feBlend mode="normal" in2="shape" result="effect1_innerShadow_812_2"/>
</filter>
<filter id="filter1_i_812_2" x="12" y="12" width="104" height="104" filterUnits="userSpaceOnUse" color-interpolation-filters="sRGB">
<feFlood flood-opacity="0" result="BackgroundImageFix"/>
<feBlend mode="normal" in="SourceGraphic" in2="BackgroundImageFix" result="shape"/>
<feColorMatrix in="SourceAlpha" type="matrix" values="0 0 0 0 0 0 0 0 0 0 0 0 0 0 0 0 0 0 127 0" result="hardAlpha"/>
<feOffset dy="-4"/>
<feComposite in2="hardAlpha" operator="arithmetic" k2="-1" k3="1"/>
<feColorMatrix type="matrix" values="0 0 0 0 0.176471 0 0 0 0 0.176471 0 0 0 0 0.176471 0 0 0 0.1 0"/>
<feBlend mode="normal" in2="shape" result="effect1_innerShadow_812_2"/>
</filter>
<filter id="filter2_d_812_2" x="36" y="27" width="56" height="77.9979" filterUnits="userSpaceOnUse" color-interpolation-filters="sRGB">
<feFlood flood-opacity="0" result="BackgroundImageFix"/>
<feColorMatrix in="SourceAlpha" type="matrix" values="0 0 0 0 0 0 0 0 0 0 0 0 0 0 0 0 0 0 127 0" result="hardAlpha"/>
<feOffset dy="4"/>
<feGaussianBlur stdDeviation="2"/>
<feComposite in2="hardAlpha" operator="out"/>
<feColorMatrix type="matrix" values="0 0 0 0 0 0 0 0 0 0 0 0 0 0 0 0 0 0 0.25 0"/>
<feBlend mode="normal" in2="BackgroundImageFix" result="effect1_dropShadow_812_2"/>
<feBlend mode="normal" in="SourceGraphic" in2="effect1_dropShadow_812_2" result="shape"/>
</filter>
<filter id="filter3_ii_812_2" x="40" y="23" width="48" height="77.9979" filterUnits="userSpaceOnUse" color-interpolation-filters="sRGB">
<feFlood flood-opacity="0" result="BackgroundImageFix"/>
<feBlend mode="normal" in="SourceGraphic" in2="BackgroundImageFix" result="shape"/>
<feColorMatrix in="SourceAlpha" type="matrix" values="0 0 0 0 0 0 0 0 0 0 0 0 0 0 0 0 0 0 127 0" result="hardAlpha"/>
<feOffset dy="-4"/>
<feGaussianBlur stdDeviation="2"/>
<feComposite in2="hardAlpha" operator="arithmetic" k2="-1" k3="1"/>
<feColorMatrix type="matrix" values="0 0 0 0 0.176471 0 0 0 0 0.176471 0 0 0 0 0.176471 0 0 0 0.25 0"/>
<feBlend mode="normal" in2="shape" result="effect1_innerShadow_812_2"/>
<feColorMatrix in="SourceAlpha" type="matrix" values="0 0 0 0 0 0 0 0 0 0 0 0 0 0 0 0 0 0 127 0" result="hardAlpha"/>
<feOffset dy="4"/>
<feGaussianBlur stdDeviation="2"/>
<feComposite in2="hardAlpha" operator="arithmetic" k2="-1" k3="1"/>
<feColorMatrix type="matrix" values="0 0 0 0 0.941176 0 0 0 0 0.941176 0 0 0 0 0.94902 0 0 0 0.2 0"/>
<feBlend mode="normal" in2="effect1_innerShadow_812_2" result="effect2_innerShadow_812_2"/>
</filter>
<linearGradient id="paint0_linear_812_2" x1="64" y1="12" x2="64" y2="116" gradientUnits="userSpaceOnUse">
<stop stop-color="#2D2D2D" stop-opacity="0"/>
<stop offset="1" stop-color="#2D2D2D" stop-opacity="0.2"/>
</linearGradient>
</defs>
</svg>
