<svg width="128" height="128" viewBox="0 0 128 128" fill="none" xmlns="http://www.w3.org/2000/svg">
<g filter="url(#filter0_ii_812_2)">
<path d="M92 12H36C22.7452 12 12 22.7452 12 36V92C12 105.255 22.7452 116 36 116H92C105.255 116 116 105.255 116 92V36C116 22.7452 105.255 12 92 12Z" fill="url(#paint0_linear_812_2)"/>
</g>
<g filter="url(#filter1_d_812_2)">
<path fill-rule="evenodd" clip-rule="evenodd" d="M70.2505 47.6087V76.1823L70.2506 76.2104V77.3756C70.2506 82.9677 65.7173 87.5009 60.1253 87.5009C54.5332 87.5009 50 82.9677 50 77.3756V76.2104C50 70.6183 54.5332 66.0851 60.1253 66.0851C61.7139 66.0851 63.217 66.4509 64.5551 67.1029V44.1706C64.5551 43.4771 64.803 42.8415 65.215 42.3476C65.7519 41.5356 66.673 41 67.7193 41C69.5327 41 72.186 41.5193 74.4722 43.1654C76.9114 44.9216 78.7193 47.8222 78.7193 52C78.7193 53.6569 77.3761 55 75.7193 55C74.0624 55 72.7193 53.6569 72.7193 52C72.7193 49.7778 71.8606 48.6784 70.9664 48.0346C70.7392 47.871 70.4979 47.7297 70.2505 47.6087Z" fill="#FAFAFA"/>
</g>
<defs>
<filter id="filter0_ii_812_2" x="12" y="12" width="104" height="105" filterUnits="userSpaceOnUse" color-interpolation-filters="sRGB">
<feFlood flood-opacity="0" result="BackgroundImageFix"/>
<feBlend mode="normal" in="SourceGraphic" in2="BackgroundImageFix" result="shape"/>
<feColorMatrix in="SourceAlpha" type="matrix" values="0 0 0 0 0 0 0 0 0 0 0 0 0 0 0 0 0 0 127 0" result="hardAlpha"/>
<feOffset dy="-4"/>
<feComposite in2="hardAlpha" operator="arithmetic" k2="-1" k3="1"/>
<feColorMatrix type="matrix" values="0 0 0 0 0 0 0 0 0 0 0 0 0 0 0 0 0 0 0.25 0"/>
<feBlend mode="normal" in2="shape" result="effect1_innerShadow_812_2"/>
<feColorMatrix in="SourceAlpha" type="matrix" values="0 0 0 0 0 0 0 0 0 0 0 0 0 0 0 0 0 0 127 0" result="hardAlpha"/>
<feMorphology radius="1" operator="erode" in="SourceAlpha" result="effect2_innerShadow_812_2"/>
<feOffset dy="2"/>
<feComposite in2="hardAlpha" operator="arithmetic" k2="-1" k3="1"/>
<feColorMatrix type="matrix" values="0 0 0 0 1 0 0 0 0 1 0 0 0 0 1 0 0 0 0.25 0"/>
<feBlend mode="normal" in2="effect1_innerShadow_812_2" result="effect2_innerShadow_812_2"/>
</filter>
<filter id="filter1_d_812_2" x="49" y="40" width="34.7193" height="52.5009" filterUnits="userSpaceOnUse" color-interpolation-filters="sRGB">
<feFlood flood-opacity="0" result="BackgroundImageFix"/>
<feColorMatrix in="SourceAlpha" type="matrix" values="0 0 0 0 0 0 0 0 0 0 0 0 0 0 0 0 0 0 127 0" result="hardAlpha"/>
<feOffset dx="2" dy="2"/>
<feGaussianBlur stdDeviation="1.5"/>
<feComposite in2="hardAlpha" operator="out"/>
<feColorMatrix type="matrix" values="0 0 0 0 0 0 0 0 0 0 0 0 0 0 0 0 0 0 0.14 0"/>
<feBlend mode="normal" in2="BackgroundImageFix" result="effect1_dropShadow_812_2"/>
<feBlend mode="normal" in="SourceGraphic" in2="effect1_dropShadow_812_2" result="shape"/>
</filter>
<linearGradient id="paint0_linear_812_2" x1="34.75" y1="12" x2="96.5" y2="116" gradientUnits="userSpaceOnUse">
<stop stop-color="#F7812B"/>
<stop offset="1" stop-color="#EE4242"/>
</linearGradient>
</defs>
</svg>
